{
    "asset" : {
        "generator" : "Khronos glTF Blender I/O v1.2.75",
        "version" : "2.0"
    },
    "extensionsUsed" : [
        "KHR_lights_punctual"
    ],
    "extensionsRequired" : [
        "KHR_lights_punctual"
    ],
    "extensions" : {
        "KHR_lights_punctual" : {
            "lights" : [
                {
                    "color" : [
                        0.5,
                        1,
                        0.5
                    ],
                    "intensity" : 2,
                    "type" : "point",
                    "name" : "Point",
                    "range" : 5
                },
                {
                    "color" : [
                        1,
                        0.5,
                        0.5
                    ],
                    "intensity" : 10,
                    "type" : "point",
                    "name" : "Point.001",
                    "range" : 15
                },
                {
                    "color" : [
                        1,
                        0.8199999928474426,
                        0.25
                    ],
                    "intensity" : 7.5,
                    "type" : "directional",
                    "name" : "Sun"
                }
            ]
        }
    },
    "scene" : 0,
    "scenes" : [
        {
            "name" : "Scene",
            "nodes" : [
                0,
                1,
                2,
                3,
                4,
                5,
                8,
                11,
                13
            ]
        }
    ],
    "nodes" : [
        {
            "mesh" : 0,
            "name" : "Bridge",
            "translation" : [
                0,
                0,
                -50
            ]
        },
        {
            "mesh" : 1,
            "name" : "Cube",
            "rotation" : [
                0,
                -0.7071067094802856,
                0,
                0.7071068286895752
            ],
            "scale" : [
                5,
                5,
                5
            ],
            "translation" : [
                9.946932792663574,
                5,
                0.1637115478515625
            ]
        },
        {
            "mesh" : 2,
            "name" : "Cube.001",
            "rotation" : [
                0,
                -0.7071067094802856,
                0,
                0.7071068286895752
            ],
            "scale" : [
                4.904197692871094,
                4.904197692871094,
                4.904197692871094
            ],
            "translation" : [
                9.836288452148438,
                4.7407989501953125,
                -0.0530669167637825
            ]
        },
        {
            "mesh" : 3,
            "name" : "Cube.002",
            "rotation" : [
                0,
                0.7071068286895752,
                0,
                0.7071067690849304
            ],
            "scale" : [
                2,
                2,
                2
            ],
            "translation" : [
                -10,
                1,
                15
            ]
        },
        {
            "mesh" : 4,
            "name" : "TowerBack",
            "translation" : [
                22.374629974365234,
                11.503084182739258,
                -64.50691223144531
            ]
        },
        {
            "mesh" : 5,
            "name" : "Tower",
            "translation" : [
                9.878084182739258,
                6.921032905578613,
                -1.334920048713684
            ]
        },
        {
            "mesh" : 6,
            "name" : "Cube.003"
        },
        {
            "extensions" : {
                "KHR_lights_punctual" : {
                    "light" : 0
                }
            },
            "name" : "pointLight1_Orientation",
            "rotation" : [
                -0.7071067690849304,
                0,
                0,
                0.7071067690849304
            ]
        },
        {
            "children" : [
                6,
                7
            ],
            "name" : "pointLight1",
            "scale" : [
                0.10000000149011612,
                0.10000000149011612,
                0.10000000149011612
            ],
            "translation" : [
                -3,
                5,
                -1
            ]
        },
        {
            "mesh" : 7,
            "name" : "Cube.004"
        },
        {
            "extensions" : {
                "KHR_lights_punctual" : {
                    "light" : 1
                }
            },
            "name" : "pointLight2_Orientation",
            "rotation" : [
                -0.7071067690849304,
                0,
                0,
                0.7071067690849304
            ]
        },
        {
            "children" : [
                9,
                10
            ],
            "name" : "pointLight2",
            "scale" : [
                0.10000000149011612,
                0.10000000149011612,
                0.10000000149011612
            ],
            "translation" : [
                2,
                5,
                -10
            ]
        },
        {
            "extensions" : {
                "KHR_lights_punctual" : {
                    "light" : 2
                },
                "project_shadows" : true
            },
            "name" : "directionalLight1_Orientation",
            "rotation" : [
                0,
                0,
                -0.7071067690849304,
                0.7071067690849304
            ],
            "translation" : [
                0,
                20,
                0
            ]
        },
        {
            "children" : [
                12
            ],
            "name" : "directionalLight1",
            "rotation" : [
                0.3959999978542328,
                -0.14900000393390656,
                -0.17000000178813934,
                -0.8880000114440918
            ],
            "scale" : [
                0.10000000149011612,
                0.10000000149011612,
                0.10000000149011612
            ],
            "translation" : [
                0,
                0,
                5
            ]
        }
    ],
    "materials" : [
        {
            "doubleSided" : true,
            "emissiveFactor" : [
                0,
                0,
                0
            ],
            "name" : "Material",
            "pbrMetallicRoughness" : {
                "baseColorFactor" : [
                    0.800000011920929,
                    0.800000011920929,
                    0.800000011920929,
                    1
                ],
                "metallicFactor" : 0,
                "roughnessFactor" : 0.4000000059604645
            }
        },
        {
            "emissiveFactor" : [
                0,
                0,
                0
            ],
            "name" : "Material.001",
            "pbrMetallicRoughness" : {
                "baseColorFactor" : [
                    0.64000004529953,
                    0.64000004529953,
                    0.64000004529953,
                    1
                ],
                "metallicFactor" : 0,
                "roughnessFactor" : 1
            }
        },
        {
            "doubleSided" : true,
            "emissiveFactor" : [
                1,
                1,
                1
            ],
            "name" : "light_material",
            "pbrMetallicRoughness" : {
                "baseColorFactor" : [
                    0.800000011920929,
                    0.800000011920929,
                    0.800000011920929,
                    1
                ],
                "metallicFactor" : 0.20000000298023224,
                "roughnessFactor" : 0.5
            }
        }
    ],
    "meshes" : [
        {
            "name" : "Plane",
            "primitives" : [
                {
                    "attributes" : {
                        "POSITION" : 0,
                        "NORMAL" : 1
                    },
                    "indices" : 2,
                    "material" : 0
                }
            ]
        },
        {
            "name" : "Cube.001",
            "primitives" : [
                {
                    "attributes" : {
                        "POSITION" : 3,
                        "NORMAL" : 4
                    },
                    "indices" : 5,
                    "material" : 0
                }
            ]
        },
        {
            "name" : "Cube.002",
            "primitives" : [
                {
                    "attributes" : {
                        "POSITION" : 6,
                        "NORMAL" : 7
                    },
                    "indices" : 8,
                    "material" : 1
                }
            ]
        },
        {
            "name" : "Cube.003",
            "primitives" : [
                {
                    "attributes" : {
                        "POSITION" : 9,
                        "NORMAL" : 10,
                        "TANGENT" : 11,
                        "TEXCOORD_0" : 12
                    },
                    "indices" : 13,
                    "material" : 0
                }
            ]
        },
        {
            "name" : "Cylinder",
            "primitives" : [
                {
                    "attributes" : {
                        "POSITION" : 14,
                        "NORMAL" : 15,
                        "TANGENT" : 16,
                        "TEXCOORD_0" : 17
                    },
                    "indices" : 18,
                    "material" : 0
                }
            ]
        },
        {
            "name" : "Cylinder.001",
            "primitives" : [
                {
                    "attributes" : {
                        "POSITION" : 19,
                        "NORMAL" : 20,
                        "TANGENT" : 21,
                        "TEXCOORD_0" : 22
                    },
                    "indices" : 23,
                    "material" : 0
                }
            ]
        },
        {
            "name" : "Cube.004",
            "primitives" : [
                {
                    "attributes" : {
                        "POSITION" : 24,
                        "NORMAL" : 25,
                        "TANGENT" : 26,
                        "TEXCOORD_0" : 27
                    },
                    "indices" : 28,
                    "material" : 2
                }
            ]
        },
        {
            "name" : "Cube.005",
            "primitives" : [
                {
                    "attributes" : {
                        "POSITION" : 29,
                        "NORMAL" : 30,
                        "TANGENT" : 31,
                        "TEXCOORD_0" : 32
                    },
                    "indices" : 28,
                    "material" : 2
                }
            ]
        }
    ],
    "accessors" : [
        {
            "bufferView" : 0,
            "componentType" : 5126,
            "count" : 2800,
            "max" : [
                25,
                17.5,
                5.750000476837158
            ],
            "min" : [
                -25,
                -9.5367431640625e-07,
                -5.749999523162842
            ],
            "type" : "VEC3"
        },
        {
            "bufferView" : 1,
            "componentType" : 5126,
            "count" : 2800,
            "type" : "VEC3"
        },
        {
            "bufferView" : 2,
            "componentType" : 5123,
            "count" : 16602,
            "type" : "SCALAR"
        },
        {
            "bufferView" : 3,
            "componentType" : 5126,
            "count" : 627,
            "max" : [
                1.3974273204803467,
                0.2603701055049896,
                1.0789815187454224
            ],
            "min" : [
                -0.6364901065826416,
                -1,
                -1.3992170095443726
            ],
            "type" : "VEC3"
        },
        {
            "bufferView" : 4,
            "componentType" : 5126,
            "count" : 627,
            "type" : "VEC3"
        },
        {
            "bufferView" : 5,
            "componentType" : 5123,
            "count" : 3045,
            "type" : "SCALAR"
        },
        {
            "bufferView" : 6,
            "componentType" : 5126,
            "count" : 176,
            "max" : [
                1.3669945001602173,
                -0.2784721851348877,
                0.9895666837692261
            ],
            "min" : [
                0.3751676082611084,
                -1.0691925287246704,
                -1.0485661029815674
            ],
            "type" : "VEC3"
        },
        {
            "bufferView" : 7,
            "componentType" : 5126,
            "count" : 176,
            "type" : "VEC3"
        },
        {
            "bufferView" : 8,
            "componentType" : 5123,
            "count" : 1104,
            "type" : "SCALAR"
        },
        {
            "bufferView" : 9,
            "componentType" : 5126,
            "count" : 186,
            "max" : [
                1.5,
                5.6666669845581055,
                1.7681056261062622
            ],
            "min" : [
                -1.5,
                -0.5,
                -1.25
            ],
            "type" : "VEC3"
        },
        {
            "bufferView" : 10,
            "componentType" : 5126,
            "count" : 186,
            "type" : "VEC3"
        },
        {
            "bufferView" : 11,
            "componentType" : 5126,
            "count" : 186,
            "type" : "VEC4"
        },
        {
            "bufferView" : 12,
            "componentType" : 5126,
            "count" : 186,
            "type" : "VEC2"
        },
        {
            "bufferView" : 13,
            "componentType" : 5123,
            "count" : 852,
            "type" : "SCALAR"
        },
        {
            "bufferView" : 14,
            "componentType" : 5126,
            "count" : 1056,
            "max" : [
                2.16218900680542,
                7.328819274902344,
                2.16218900680542
            ],
            "min" : [
                -2.16218900680542,
                -1.5,
                -2.162188768386841
            ],
            "type" : "VEC3"
        },
        {
            "bufferView" : 15,
            "componentType" : 5126,
            "count" : 1056,
            "type" : "VEC3"
        },
        {
            "bufferView" : 16,
            "componentType" : 5126,
            "count" : 1056,
            "type" : "VEC4"
        },
        {
            "bufferView" : 17,
            "componentType" : 5126,
            "count" : 1056,
            "type" : "VEC2"
        },
        {
            "bufferView" : 18,
            "componentType" : 5123,
            "count" : 5361,
            "type" : "SCALAR"
        },
        {
            "bufferView" : 19,
            "componentType" : 5126,
            "count" : 1542,
            "max" : [
                2.6972503662109375,
                14.85816764831543,
                2.6972506046295166
            ],
            "min" : [
                -2.6972503662109375,
                -6.5,
                -2.6972506046295166
            ],
            "type" : "VEC3"
        },
        {
            "bufferView" : 20,
            "componentType" : 5126,
            "count" : 1542,
            "type" : "VEC3"
        },
        {
            "bufferView" : 21,
            "componentType" : 5126,
            "count" : 1542,
            "type" : "VEC4"
        },
        {
            "bufferView" : 22,
            "componentType" : 5126,
            "count" : 1542,
            "type" : "VEC2"
        },
        {
            "bufferView" : 23,
            "componentType" : 5123,
            "count" : 5442,
            "type" : "SCALAR"
        },
        {
            "bufferView" : 24,
            "componentType" : 5126,
            "count" : 24,
            "max" : [
                1,
                1,
                1
            ],
            "min" : [
                -1,
                -1,
                -1
            ],
            "type" : "VEC3"
        },
        {
            "bufferView" : 25,
            "componentType" : 5126,
            "count" : 24,
            "type" : "VEC3"
        },
        {
            "bufferView" : 26,
            "componentType" : 5126,
            "count" : 24,
            "type" : "VEC4"
        },
        {
            "bufferView" : 27,
            "componentType" : 5126,
            "count" : 24,
            "type" : "VEC2"
        },
        {
            "bufferView" : 28,
            "componentType" : 5123,
            "count" : 36,
            "type" : "SCALAR"
        },
        {
            "bufferView" : 29,
            "componentType" : 5126,
            "count" : 24,
            "max" : [
                1,
                1,
                1
            ],
            "min" : [
                -1,
                -1,
                -1
            ],
            "type" : "VEC3"
        },
        {
            "bufferView" : 30,
            "componentType" : 5126,
            "count" : 24,
            "type" : "VEC3"
        },
        {
            "bufferView" : 31,
            "componentType" : 5126,
            "count" : 24,
            "type" : "VEC4"
        },
        {
            "bufferView" : 32,
            "componentType" : 5126,
            "count" : 24,
            "type" : "VEC2"
        }
    ],
    "bufferViews" : [
        {
            "buffer" : 0,
            "byteLength" : 33600,
            "byteOffset" : 0
        },
        {
            "buffer" : 0,
            "byteLength" : 33600,
            "byteOffset" : 33600
        },
        {
            "buffer" : 0,
            "byteLength" : 33204,
            "byteOffset" : 67200
        },
        {
            "buffer" : 0,
            "byteLength" : 7524,
            "byteOffset" : 100404
        },
        {
            "buffer" : 0,
            "byteLength" : 7524,
            "byteOffset" : 107928
        },
        {
            "buffer" : 0,
            "byteLength" : 6090,
            "byteOffset" : 115452
        },
        {
            "buffer" : 0,
            "byteLength" : 2112,
            "byteOffset" : 121544
        },
        {
            "buffer" : 0,
            "byteLength" : 2112,
            "byteOffset" : 123656
        },
        {
            "buffer" : 0,
            "byteLength" : 2208,
            "byteOffset" : 125768
        },
        {
            "buffer" : 0,
            "byteLength" : 2232,
            "byteOffset" : 127976
        },
        {
            "buffer" : 0,
            "byteLength" : 2232,
            "byteOffset" : 130208
        },
        {
            "buffer" : 0,
            "byteLength" : 2976,
            "byteOffset" : 132440
        },
        {
            "buffer" : 0,
            "byteLength" : 1488,
            "byteOffset" : 135416
        },
        {
            "buffer" : 0,
            "byteLength" : 1704,
            "byteOffset" : 136904
        },
        {
            "buffer" : 0,
            "byteLength" : 12672,
            "byteOffset" : 138608
        },
        {
            "buffer" : 0,
            "byteLength" : 12672,
            "byteOffset" : 151280
        },
        {
            "buffer" : 0,
            "byteLength" : 16896,
            "byteOffset" : 163952
        },
        {
            "buffer" : 0,
            "byteLength" : 8448,
            "byteOffset" : 180848
        },
        {
            "buffer" : 0,
            "byteLength" : 10722,
            "byteOffset" : 189296
        },
        {
            "buffer" : 0,
            "byteLength" : 18504,
            "byteOffset" : 200020
        },
        {
            "buffer" : 0,
            "byteLength" : 18504,
            "byteOffset" : 218524
        },
        {
            "buffer" : 0,
            "byteLength" : 24672,
            "byteOffset" : 237028
        },
        {
            "buffer" : 0,
            "byteLength" : 12336,
            "byteOffset" : 261700
        },
        {
            "buffer" : 0,
            "byteLength" : 10884,
            "byteOffset" : 274036
        },
        {
            "buffer" : 0,
            "byteLength" : 288,
            "byteOffset" : 284920
        },
        {
            "buffer" : 0,
            "byteLength" : 288,
            "byteOffset" : 285208
        },
        {
            "buffer" : 0,
            "byteLength" : 384,
            "byteOffset" : 285496
        },
        {
            "buffer" : 0,
            "byteLength" : 192,
            "byteOffset" : 285880
        },
        {
            "buffer" : 0,
            "byteLength" : 72,
            "byteOffset" : 286072
        },
        {
            "buffer" : 0,
            "byteLength" : 288,
            "byteOffset" : 286144
        },
        {
            "buffer" : 0,
            "byteLength" : 288,
            "byteOffset" : 286432
        },
        {
            "buffer" : 0,
            "byteLength" : 384,
            "byteOffset" : 286720
        },
        {
            "buffer" : 0,
            "byteLength" : 192,
            "byteOffset" : 287104
        }
    ],
    "buffers" : [
        {
            "byteLength" : 287296,
            "uri" : "test.bin"
        }
    ]
}
